{
  "title": "Straight Outta Compton 2015 720p NEW HDRIP x264 AC3 TiTAN",
  "uid": 12308225,
  "size": 2207318674,
  "categoryP": "video",
  "categoryS": "movies",
  "magnet": "?xt=urn:btih:4457bf027fbae6c015f0d3f81db1a051c6149912&amp;dn=Straight+Outta+Compton+2015+720p+NEW+HDRIP+x264+AC3+TiTAN&amp;tr=udp%3A%2F%2Ftracker.openbittorrent.com%3A80&amp;tr=udp%3A%2F%2Fopen.demonii.com%3A1337&amp;tr=udp%3A%2F%2Ftracker.coppersurfer.tk%3A6969&amp;tr=udp%3A%2F%2Fexodus.desync.com%3A6969",
  "seeders": 200,
  "leechers": 18,
  "uploader": "makintos13",
  "files": 2,
  "time": 1440836351,
  "description": "\nScreens:\n &lt;a href=&quot;\nhttp://imgmak.com/V2&quot; rel=&quot;nofollow&quot; target=&quot;_NEW&quot;&gt;\nhttp://imgmak.com/V2&lt;/a&gt;\n &lt;a href=&quot;\nhttp://imgmak.com/VF&quot; rel=&quot;nofollow&quot; target=&quot;_NEW&quot;&gt;\nhttp://imgmak.com/VF&lt;/a&gt;\n &lt;a href=&quot;\nhttp://imgmak.com/Vi&quot; rel=&quot;nofollow&quot; target=&quot;_NEW&quot;&gt;\nhttp://imgmak.com/Vi&lt;/a&gt;\n &lt;a href=&quot;\nhttp://imgmak.com/Vj&quot; rel=&quot;nofollow&quot; target=&quot;_NEW&quot;&gt;\nhttp://imgmak.com/Vj&lt;/a&gt;\n &lt;a href=&quot;\nhttp://imgmak.com/Vw&quot; rel=&quot;nofollow&quot; target=&quot;_NEW&quot;&gt;\nhttp://imgmak.com/Vw&lt;/a&gt;\n\n\n\nsource: 1080p Mp4\n\nNew source, no glitch in the middle and sync is perfect. decided to crop the one line of subs of f as well.. so pretty clean copy till retail.. Enjoy\n\nGeneral\n\nFormat : Matroska\nFormat version : Version 2\nFile size : 2.06 GiB\nDuration : 2h 24mn\nOverall bit rate mode : Variable\nOverall bit rate : 2 043 Kbps\nEncoded date : UTC 2015-08-28 20:38:21\n\nVideo\nID : 1\nFormat : AVC\nFormat/Info : Advanced Video Codec\nFormat profile : &lt;a class=&quot;__cf_email__&quot; href=&quot;/cdn-cgi/l/email-protection&quot; data-cfemail=&quot;3e765759567e720a100f&quot;&gt;[email&amp;#160;protected]&lt;/a&gt;&lt;script data-cfhash='f9e31' type=&quot;text/javascript&quot;&gt;\n/* &lt;![CDATA[ */!function(){try{var t=&quot;currentScript&quot;in document?document.currentScript:function(){for(var t=document.getElementsByTagName(&quot;script&quot;),e=t.length;e--;)if(t[e].getAttribute(&quot;data-cfhash&quot;))return t[e]}();if(t&amp;&amp;t.previousSibling){var e,r,n,i,c=t.previousSibling,a=c.getAttribute(&quot;data-cfemail&quot;);if(a){for(e=&quot;&quot;,r=parseInt(a.substr(0,2),16),n=2;a.length-n;n+=2)i=parseInt(a.substr(n,2),16)^r,e+=String.fromCharCode(i);e=document.createTextNode(e),c.parentNode.replaceChild(e,c)}t.parentNode.removeChild(t);}}catch(u){}}()/* ]]&gt; */&lt;/script&gt;\nFormat settings, CABAC : Yes\nFormat settings, ReFrames : 3 frames\nCodec ID : V_MPEG4/ISO/AVC\nDuration : 2h 24mn\nBit rate mode : Variable\nBit rate : 1 746 Kbps\nMaximum bit rate : 40.0 Mbps\nWidth : 1 280 pixels\nHeight : 480 pixels\nDisplay aspect ratio : 2.667\nFrame rate mode : Constant\nFrame rate : 25.000 fps\nColor space : YUV\nChroma subsampling : 4:2:0\nBit depth : 8 bits\nScan type : Progressive\nBits/(Pixel*Frame) : 0.114\nStream size : 1.76 GiB (85%)\nDefault : Yes\nForced : No\nColor primaries : BT.709\nTransfer characteristics : BT.709\nMatrix coefficients : BT.709\n\nAudio\nID : 2\nFormat : AC-3\nFormat/Info : Audio Coding 3\nMode extension : CM (complete main)\nFormat settings, Endianness : Big\nCodec ID : A_AC3\nDuration : 2h 24mn\nBit rate mode : Constant\nBit rate : 256 Kbps\nChannel(s) : 2 channels\nChannel positions : Front: L R\nSampling rate : 44.1 KHz\nBit depth : 16 bits\nCompression mode : Lossy\nStream size : 264 MiB (13%)\nDefault : Yes\nForced : No",
  "parsed": {
    "xt": "urn:btih:4457bf027fbae6c015f0d3f81db1a051c6149912",
    "dn": "Straight Outta Compton 2015 720p NEW HDRIP x264 AC3 TiTAN",
    "tr": [
      "udp://exodus.desync.com:6969",
      "udp://open.demonii.com:1337",
      "udp://tracker.coppersurfer.tk:6969",
      "udp://tracker.openbittorrent.com:80"
    ],
    "infoHash": "4457bf027fbae6c015f0d3f81db1a051c6149912",
    "infoHashBuffer": {
      "type": "Buffer",
      "data": [
        68,
        87,
        191,
        2,
        127,
        186,
        230,
        192,
        21,
        240,
        211,
        248,
        29,
        177,
        160,
        81,
        198,
        20,
        153,
        18
      ]
    },
    "name": "Straight Outta Compton 2015 720p NEW HDRIP x264 AC3 TiTAN",
    "announce": [
      "udp://exodus.desync.com:6969",
      "udp://open.demonii.com:1337",
      "udp://tracker.coppersurfer.tk:6969",
      "udp://tracker.openbittorrent.com:80"
    ],
    "urlList": []
  },
  "previous": 218,
  "peers": 29,
  "last_updated": "2016-12-24T23:34:21.765Z"
}